
<svg viewBox="0 0 1000 1000" enable-background="new 0 0 1000 1000" xml:space="preserve">
<g><g transform="translate(0.000000,511.000000) scale(0.100000,-0.100000)"><path d="M6921.5,4123.9c-160.6-203.7-74.4-368.3,270.4-544.6c1324.3-670,2198.1-2198.1,2104.1-3683c-50.9-779.7-286-1426.2-752.3-2072.7L8324.2-2486l211.6-215.5l211.6-211.6l231.2,309.5c1677,2221.6,995.2,5316.9-1477.1,6707.8C7223.2,4261,7035.1,4264.9,6921.5,4123.9z"/><path d="M1009,4096.5c-207.7-219.4-411.4,3.9,3784.9-4192.4c3451.9-3451.9,3879-3867.2,3988.7-3867.2c152.8,0,290,141,290,297.8c0,98-493.7,607.3-3871.1,3984.7C1749.5,3771.3,1322.5,4186.6,1212.7,4186.6C1138.3,4186.6,1059.9,4151.3,1009,4096.5z"/><path d="M3845.7,3007.2L3305,2533.1l207.7-211.6c231.2-231.2,195.9-235.1,505.4,43.1l176.3,156.7l11.7-454.5l11.8-450.6l309.5-309.5l313.5-313.5v1081.4c0,1116.7-19.6,1293-156.7,1367.4C4496.2,3540.1,4406,3493.1,3845.7,3007.2z"/><path d="M6337.7,2787.8c-27.4-11.7-74.5-70.5-109.7-137.1c-94-184.1-19.6-317.4,274.3-470.2c352.6-188.1,799.3-646.5,979.5-1010.9c364.4-748.4,329.1-1579-97.9-2288.2L7223.2-1385l207.6-211.6l207.7-211.6l133.2,188.1c485.9,673.9,670,1567.3,493.7,2370.4c-78.4,352.6-348.7,916.9-579.9,1210.7C7270.2,2482.2,6600.2,2893.6,6337.7,2787.8z"/><path d="M2317.7,1679l-168.5-156.7H1201c-893.3,0-948.2-3.9-1022.6-78.4c-74.4-74.4-78.4-129.3-78.4-1332.2c0-1202.9,3.9-1257.7,78.4-1332.1c74.4-74.5,129.3-78.4,1018.7-78.4h940.4l1128.4-979.5c1163.7-1014.8,1218.5-1050.1,1418.4-940.4c137.1,74.4,156.7,246.8,156.7,1524.1v1238.1l-313.5,313.5L4214,166.6l-7.8-1230.3l-11.7-1226.4l-783.6,681.7c-431,376.2-842.4,728.8-912.9,791.5l-133.2,105.8h-838.5H687.7v822.8v822.8h838.5h838.5l133.2,105.8c70.5,58.8,203.7,172.4,289.9,250.8l164.6,145l-203.7,199.8c-109.7,109.7-215.5,199.8-231.2,199.8C2501.8,1835.7,2411.7,1765.2,2317.7,1679z"/><path d="M5652,1361.6c-203.8-117.5-152.8-419.2,90.1-544.6c340.9-176.3,521.1-619.1,391.8-963.9c-39.2-101.9-27.4-125.4,176.3-325.2c246.8-246.8,239-250.7,376.1,113.6c113.6,293.9,94,799.3-43.1,1057.9c-141,278.2-305.6,466.3-525,587.7C5910.6,1408.6,5769.6,1432.1,5652,1361.6z"/><path d="M6337.7-2031.5c-27.4-11.7-74.5-70.5-109.7-137.1c-51-97.9-51-137.1-11.8-231.2c82.3-199.8,262.5-242.9,497.6-121.5l125.4,70.5l-223.3,219.4C6490.5-2113.7,6365.1-2019.7,6337.7-2031.5z"/><path d="M7215.3-3336.2c-372.2-207.7-454.5-360.5-293.9-564.2c129.3-164.6,305.6-141,713.1,101.9l344.8,203.7l-207.7,207.7c-113.6,113.6-223.3,207.7-246.8,203.7C7505.3-3183.4,7364.2-3253.9,7215.3-3336.2z"/></g></g>
</svg>